<svg width="1200" height="630" viewBox="0 0 1200 630" xmlns="http://www.w3.org/2000/svg">
  <defs>
    <linearGradient id="bg" x1="0%" y1="0%" x2="100%" y2="100%">
      <stop offset="0%" style="stop-color:#0f172a"/>
      <stop offset="100%" style="stop-color:#1e293b"/>
    </linearGradient>
    <linearGradient id="accent" x1="0%" y1="0%" x2="100%" y2="0%">
      <stop offset="0%" style="stop-color:#7c3aed"/>
      <stop offset="100%" style="stop-color:#06b6d4"/>
    </linearGradient>
  </defs>
  <!-- Background -->
  <rect width="1200" height="630" fill="url(#bg)"/>
  <!-- Accent bar -->
  <rect y="0" width="1200" height="4" fill="url(#accent)"/>
  <!-- Mountain silhouette -->
  <path d="M0,630 L0,450 Q150,350 300,400 Q450,300 600,370 Q750,280 900,340 Q1050,290 1200,350 L1200,630 Z" fill="#1e293b" opacity="0.5"/>
  <path d="M0,630 L0,500 Q200,420 400,470 Q600,390 800,450 Q1000,400 1200,460 L1200,630 Z" fill="#1e293b" opacity="0.7"/>
  <!-- Content -->
  <text x="100" y="230" font-family="system-ui, -apple-system, sans-serif" font-size="96" font-weight="bold" fill="#f8fafc">Mehul</text>
  <text x="100" y="310" font-family="system-ui, -apple-system, sans-serif" font-size="36" fill="#94a3b8">Software Engineer &amp; AI Builder</text>
  <rect x="100" y="350" width="120" height="3" rx="1.5" fill="url(#accent)"/>
  <text x="100" y="420" font-family="system-ui, -apple-system, sans-serif" font-size="24" fill="#64748b">AWS · Python · Next.js · AI/LLM</text>
  <text x="100" y="465" font-family="system-ui, -apple-system, sans-serif" font-size="24" fill="#64748b">Vanguard · 259+ Citations · 8 Products</text>
  <!-- Domain -->
  <text x="1100" y="590" font-family="system-ui, -apple-system, sans-serif" font-size="20" fill="#475569" text-anchor="end">mehulai.com</text>
</svg>
